# 72 right triangles; longest edge sqrt(2).
# Coordinates in millimeters.
o surface
v 0 0 0
v 1 0 0
v 2 0 0
v 3 0 0
v 4 0 0
v 5 0 0
v 6 0 0
v 0 1 0
v 1 1 0
v 2 1 0
v 3 1 0
v 4 1 0
v 5 1 0
v 6 1 0
v 0 2 0
v 1 2 0
v 2 2 0
v 3 2 0
v 4 2 0
v 5 2 0
v 6 2 0
v 0 3 0
v 1 3 0
v 2 3 0
v 3 3 0
v 4 3 0
v 5 3 0
v 6 3 0
v 0 4 0
v 1 4 0
v 2 4 0
v 3 4 0
v 4 4 0
v 5 4 0
v 6 4 0
v 0 5 0
v 1 5 0
v 2 5 0
v 3 5 0
v 4 5 0
v 5 5 0
v 6 5 0
v 0 6 0
v 1 6 0
v 2 6 0
v 3 6 0
v 4 6 0
v 5 6 0
v 6 6 0
f 1 2 9
f 1 9 8
f 2 3 10
f 2 10 9
f 3 4 11
f 3 11 10
f 4 5 12
f 4 12 11
f 5 6 13
f 5 13 12
f 6 7 14
f 6 14 13
f 8 9 16
f 8 16 15
f 9 10 17
f 9 17 16
f 10 11 18
f 10 18 17
f 11 12 19
f 11 19 18
f 12 13 20
f 12 20 19
f 13 14 21
f 13 21 20
f 15 16 23
f 15 23 22
f 16 17 24
f 16 24 23
f 17 18 25
f 17 25 24
f 18 19 26
f 18 26 25
f 19 20 27
f 19 27 26
f 20 21 28
f 20 28 27
f 22 23 30
f 22 30 29
f 23 24 31
f 23 31 30
f 24 25 32
f 24 32 31
f 25 26 33
f 25 33 32
f 26 27 34
f 26 34 33
f 27 28 35
f 27 35 34
f 29 30 37
f 29 37 36
f 30 31 38
f 30 38 37
f 31 32 39
f 31 39 38
f 32 33 40
f 32 40 39
f 33 34 41
f 33 41 40
f 34 35 42
f 34 42 41
f 36 37 44
f 36 44 43
f 37 38 45
f 37 45 44
f 38 39 46
f 38 46 45
f 39 40 47
f 39 47 46
f 40 41 48
f 40 48 47
f 41 42 49
f 41 49 48
