# 40 triangles; successive strip heights .25, .5, 1, 2, 4. Maximum size jump sqrt(2).
# Coordinates in millimeters.
o surface
v 0 0 0
v 1 0 0
v 2 0 0
v 3 0 0
v 4 0 0
v 0 0.25 0
v 1 0.25 0
v 2 0.25 0
v 3 0.25 0
v 4 0.25 0
v 0 0.75 0
v 1 0.75 0
v 2 0.75 0
v 3 0.75 0
v 4 0.75 0
v 0 1.75 0
v 1 1.75 0
v 2 1.75 0
v 3 1.75 0
v 4 1.75 0
v 0 3.75 0
v 1 3.75 0
v 2 3.75 0
v 3 3.75 0
v 4 3.75 0
v 0 7.75 0
v 1 7.75 0
v 2 7.75 0
v 3 7.75 0
v 4 7.75 0
f 1 2 7
f 1 7 6
f 2 3 8
f 2 8 7
f 3 4 9
f 3 9 8
f 4 5 10
f 4 10 9
f 6 7 12
f 6 12 11
f 7 8 13
f 7 13 12
f 8 9 14
f 8 14 13
f 9 10 15
f 9 15 14
f 11 12 17
f 11 17 16
f 12 13 18
f 12 18 17
f 13 14 19
f 13 19 18
f 14 15 20
f 14 20 19
f 16 17 22
f 16 22 21
f 17 18 23
f 17 23 22
f 18 19 24
f 18 24 23
f 19 20 25
f 19 25 24
f 21 22 27
f 21 27 26
f 22 23 28
f 22 28 27
f 23 24 29
f 23 29 28
f 24 25 30
f 24 30 29
