o Curved_surface
v -2.0 -2 -0.29130278558299966
v -2.0 2 -0.29130278558299966
v -1.9 -2 -0.22630269680445234
v -1.9 2 -0.22630269680445234
v -1.8 -2 -0.15904146628516097
v -1.8 2 -0.15904146628516097
v -1.7 -2 -0.09019114600686724
v -1.7 2 -0.09019114600686724
v -1.6 -2 -0.02043966561090217
v -1.6 2 -0.02043966561090217
v -1.5 -2 0.049516041167392034
v -1.5 2 0.049516041167392034
v -1.4 -2 0.11897700003016871
v -1.4 2 0.11897700003016871
v -1.3 -2 0.18724918003721114
v -1.3 2 0.18724918003721114
v -1.2 -2 0.2536504281336715
v -1.2 2 0.2536504281336715
v -1.1 -2 0.3175172849979041
v -1.1 2 0.3175172849979041
v -1.0 -2 0.3782116141076978
v -1.0 2 0.3782116141076978
v -0.8999999999999999 -2 0.43512697778946513
v -0.8999999999999999 2 0.43512697778946513
v -0.8 -2 0.4876946965430157
v -0.8 2 0.4876946965430157
v -0.7 -2 0.5353895310991419
v -0.7 2 0.5353895310991419
v -0.6000000000000001 -2 0.5777349304367747
v -0.6000000000000001 2 0.5777349304367747
v -0.5 -2 0.6143077933232609
v -0.5 2 0.6143077933232609
v -0.3999999999999999 -2 0.6447426958020195
v -0.3999999999999999 2 0.6447426958020195
v -0.30000000000000004 -2 0.6687355423879241
v -0.30000000000000004 2 0.6687355423879241
v -0.19999999999999996 -2 0.6860466044888691
v -0.19999999999999996 2 0.6860466044888691
v -0.10000000000000009 -2 0.696502915694618
v -0.10000000000000009 2 0.696502915694618
v 0.0 -2 0.7
v 0.0 2 0.7
v 0.10000000000000009 -2 0.696502915694618
v 0.10000000000000009 2 0.696502915694618
v 0.20000000000000018 -2 0.6860466044888691
v 0.20000000000000018 2 0.6860466044888691
v 0.2999999999999998 -2 0.6687355423879242
v 0.2999999999999998 2 0.6687355423879242
v 0.3999999999999999 -2 0.6447426958020195
v 0.3999999999999999 2 0.6447426958020195
v 0.5 -2 0.6143077933232609
v 0.5 2 0.6143077933232609
v 0.6000000000000001 -2 0.5777349304367747
v 0.6000000000000001 2 0.5777349304367747
v 0.7000000000000002 -2 0.5353895310991418
v 0.7000000000000002 2 0.5353895310991418
v 0.7999999999999998 -2 0.48769469654301584
v 0.7999999999999998 2 0.48769469654301584
v 0.8999999999999999 -2 0.43512697778946513
v 0.8999999999999999 2 0.43512697778946513
v 1.0 -2 0.3782116141076978
v 1.0 2 0.3782116141076978
v 1.1 -2 0.3175172849979041
v 1.1 2 0.3175172849979041
v 1.2000000000000002 -2 0.2536504281336714
v 1.2000000000000002 2 0.2536504281336714
v 1.2999999999999998 -2 0.18724918003721128
v 1.2999999999999998 2 0.18724918003721128
v 1.4 -2 0.11897700003016871
v 1.4 2 0.11897700003016871
v 1.5 -2 0.049516041167392034
v 1.5 2 0.049516041167392034
v 1.6 -2 -0.02043966561090217
v 1.6 2 -0.02043966561090217
v 1.7000000000000002 -2 -0.0901911460068674
v 1.7000000000000002 2 -0.0901911460068674
v 1.7999999999999998 -2 -0.1590414662851608
v 1.7999999999999998 2 -0.1590414662851608
v 1.9 -2 -0.22630269680445234
v 1.9 2 -0.22630269680445234
v 2.0 -2 -0.29130278558299966
v 2.0 2 -0.29130278558299966
f 1 3 4
f 1 4 2
f 3 5 6
f 3 6 4
f 5 7 8
f 5 8 6
f 7 9 10
f 7 10 8
f 9 11 12
f 9 12 10
f 11 13 14
f 11 14 12
f 13 15 16
f 13 16 14
f 15 17 18
f 15 18 16
f 17 19 20
f 17 20 18
f 19 21 22
f 19 22 20
f 21 23 24
f 21 24 22
f 23 25 26
f 23 26 24
f 25 27 28
f 25 28 26
f 27 29 30
f 27 30 28
f 29 31 32
f 29 32 30
f 31 33 34
f 31 34 32
f 33 35 36
f 33 36 34
f 35 37 38
f 35 38 36
f 37 39 40
f 37 40 38
f 39 41 42
f 39 42 40
f 41 43 44
f 41 44 42
f 43 45 46
f 43 46 44
f 45 47 48
f 45 48 46
f 47 49 50
f 47 50 48
f 49 51 52
f 49 52 50
f 51 53 54
f 51 54 52
f 53 55 56
f 53 56 54
f 55 57 58
f 55 58 56
f 57 59 60
f 57 60 58
f 59 61 62
f 59 62 60
f 61 63 64
f 61 64 62
f 63 65 66
f 63 66 64
f 65 67 68
f 65 68 66
f 67 69 70
f 67 70 68
f 69 71 72
f 69 72 70
f 71 73 74
f 71 74 72
f 73 75 76
f 73 76 74
f 75 77 78
f 75 78 76
f 77 79 80
f 77 80 78
f 79 81 82
f 79 82 80
